<?xml version="1.0" encoding="UTF-8"?>
<!DOCTYPE svg PUBLIC "-//W3C//DTD SVG 1.1//EN"
    "http://www.w3.org/Graphics/SVG/1.1/DTD/svg11.dtd"><svg xmlns="http://www.w3.org/2000/svg" height="100.0000" stroke-opacity="1" viewBox="0 0 100 100" font-size="1" width="100.0000" xmlns:xlink="http://www.w3.org/1999/xlink" stroke="rgb(0,0,0)" version="1.1"><defs></defs><g stroke-linejoin="miter" stroke-opacity="1.0" fill-opacity="1.0" stroke="rgb(169,169,169)" stroke-width="0.5" fill="rgb(173,216,230)" stroke-linecap="butt" stroke-miterlimit="10.0"><path d="M 100.0000,14.2857 l -0.0000,-14.2857 h -14.2857 l -0.0000,14.2857 Z"/></g><g stroke-linejoin="miter" stroke-opacity="1.0" fill-opacity="1.0" stroke="rgb(169,169,169)" stroke-width="0.5" fill="rgb(173,216,230)" stroke-linecap="butt" stroke-miterlimit="10.0"><path d="M 100.0000,28.5714 l -0.0000,-14.2857 h -14.2857 l -0.0000,14.2857 Z"/></g><g stroke-linejoin="miter" stroke-opacity="1.0" fill-opacity="1.0" stroke="rgb(169,169,169)" stroke-width="0.5" fill="rgb(173,216,230)" stroke-linecap="butt" stroke-miterlimit="10.0"><path d="M 100.0000,42.8571 l -0.0000,-14.2857 h -14.2857 l -0.0000,14.2857 Z"/></g><g stroke-linejoin="miter" stroke-opacity="1.0" fill-opacity="1.0" stroke="rgb(169,169,169)" stroke-width="0.5" fill="rgb(173,216,230)" stroke-linecap="butt" stroke-miterlimit="10.0"><path d="M 100.0000,57.1429 l -0.0000,-14.2857 h -14.2857 l -0.0000,14.2857 Z"/></g><g stroke-linejoin="miter" stroke-opacity="1.0" fill-opacity="1.0" stroke="rgb(169,169,169)" stroke-width="0.5" fill="rgb(173,216,230)" stroke-linecap="butt" stroke-miterlimit="10.0"><path d="M 100.0000,71.4286 l -0.0000,-14.2857 h -14.2857 l -0.0000,14.2857 Z"/></g><g stroke-linejoin="miter" stroke-opacity="1.0" fill-opacity="1.0" stroke="rgb(169,169,169)" stroke-width="0.5" fill="rgb(173,216,230)" stroke-linecap="butt" stroke-miterlimit="10.0"><path d="M 100.0000,85.7143 l -0.0000,-14.2857 h -14.2857 l -0.0000,14.2857 Z"/></g><g stroke-linejoin="miter" stroke-opacity="1.0" fill-opacity="1.0" stroke="rgb(169,169,169)" stroke-width="0.5" fill="rgb(173,216,230)" stroke-linecap="butt" stroke-miterlimit="10.0"><path d="M 100.0000,100.0000 l -0.0000,-14.2857 h -14.2857 l -0.0000,14.2857 Z"/></g><g stroke-linejoin="miter" stroke-opacity="1.0" fill-opacity="1.0" stroke="rgb(169,169,169)" stroke-width="0.5" fill="rgb(173,216,230)" stroke-linecap="butt" stroke-miterlimit="10.0"><path d="M 85.7143,14.2857 l -0.0000,-14.2857 h -14.2857 l -0.0000,14.2857 Z"/></g><g stroke-linejoin="miter" stroke-opacity="1.0" fill-opacity="1.0" stroke="rgb(169,169,169)" stroke-width="0.5" fill="rgb(173,216,230)" stroke-linecap="butt" stroke-miterlimit="10.0"><path d="M 85.7143,28.5714 l -0.0000,-14.2857 h -14.2857 l -0.0000,14.2857 Z"/></g><g stroke-linejoin="miter" stroke-opacity="1.0" fill-opacity="1.0" stroke="rgb(169,169,169)" stroke-width="0.5" fill="rgb(173,216,230)" stroke-linecap="butt" stroke-miterlimit="10.0"><path d="M 85.7143,42.8571 l -0.0000,-14.2857 h -14.2857 l -0.0000,14.2857 Z"/></g><g stroke-linejoin="miter" stroke-opacity="1.0" fill-opacity="1.0" stroke="rgb(169,169,169)" stroke-width="0.5" fill="rgb(173,216,230)" stroke-linecap="butt" stroke-miterlimit="10.0"><path d="M 85.7143,57.1429 l -0.0000,-14.2857 h -14.2857 l -0.0000,14.2857 Z"/></g><g stroke-linejoin="miter" stroke-opacity="1.0" fill-opacity="1.0" stroke="rgb(169,169,169)" stroke-width="0.5" fill="rgb(173,216,230)" stroke-linecap="butt" stroke-miterlimit="10.0"><path d="M 85.7143,71.4286 l -0.0000,-14.2857 h -14.2857 l -0.0000,14.2857 Z"/></g><g stroke-linejoin="miter" stroke-opacity="1.0" fill-opacity="1.0" stroke="rgb(169,169,169)" stroke-width="0.5" fill="rgb(173,216,230)" stroke-linecap="butt" stroke-miterlimit="10.0"><path d="M 85.7143,85.7143 l -0.0000,-14.2857 h -14.2857 l -0.0000,14.2857 Z"/></g><g stroke-linejoin="miter" stroke-opacity="1.0" fill-opacity="1.0" stroke="rgb(169,169,169)" stroke-width="0.5" fill="rgb(173,216,230)" stroke-linecap="butt" stroke-miterlimit="10.0"><path d="M 85.7143,100.0000 l -0.0000,-14.2857 h -14.2857 l -0.0000,14.2857 Z"/></g><g stroke-linejoin="miter" stroke-opacity="1.0" fill-opacity="1.0" stroke="rgb(169,169,169)" stroke-width="0.5" fill="rgb(173,216,230)" stroke-linecap="butt" stroke-miterlimit="10.0"><path d="M 71.4286,14.2857 l -0.0000,-14.2857 h -14.2857 l -0.0000,14.2857 Z"/></g><g stroke-linejoin="miter" stroke-opacity="1.0" fill-opacity="1.0" stroke="rgb(169,169,169)" stroke-width="0.5" fill="rgb(173,216,230)" stroke-linecap="butt" stroke-miterlimit="10.0"><path d="M 71.4286,28.5714 l -0.0000,-14.2857 h -14.2857 l -0.0000,14.2857 Z"/></g><g stroke-linejoin="miter" stroke-opacity="1.0" fill-opacity="1.0" stroke="rgb(169,169,169)" stroke-width="0.5" fill="rgb(173,216,230)" stroke-linecap="butt" stroke-miterlimit="10.0"><path d="M 71.4286,42.8571 l -0.0000,-14.2857 h -14.2857 l -0.0000,14.2857 Z"/></g><g stroke-linejoin="miter" stroke-opacity="1.0" fill-opacity="1.0" stroke="rgb(169,169,169)" stroke-width="0.5" fill="rgb(173,216,230)" stroke-linecap="butt" stroke-miterlimit="10.0"><path d="M 71.4286,57.1429 l -0.0000,-14.2857 h -14.2857 l -0.0000,14.2857 Z"/></g><g stroke-linejoin="miter" stroke-opacity="1.0" fill-opacity="1.0" stroke="rgb(169,169,169)" stroke-width="0.5" fill="rgb(173,216,230)" stroke-linecap="butt" stroke-miterlimit="10.0"><path d="M 71.4286,71.4286 l -0.0000,-14.2857 h -14.2857 l -0.0000,14.2857 Z"/></g><g stroke-linejoin="miter" stroke-opacity="1.0" fill-opacity="1.0" stroke="rgb(169,169,169)" stroke-width="0.5" fill="rgb(173,216,230)" stroke-linecap="butt" stroke-miterlimit="10.0"><path d="M 71.4286,85.7143 l -0.0000,-14.2857 h -14.2857 l -0.0000,14.2857 Z"/></g><g stroke-linejoin="miter" stroke-opacity="1.0" fill-opacity="1.0" stroke="rgb(169,169,169)" stroke-width="0.5" fill="rgb(173,216,230)" stroke-linecap="butt" stroke-miterlimit="10.0"><path d="M 71.4286,100.0000 l -0.0000,-14.2857 h -14.2857 l -0.0000,14.2857 Z"/></g><g stroke-linejoin="miter" stroke-opacity="1.0" fill-opacity="1.0" stroke="rgb(169,169,169)" stroke-width="0.5" fill="rgb(173,216,230)" stroke-linecap="butt" stroke-miterlimit="10.0"><path d="M 57.1429,14.2857 l -0.0000,-14.2857 h -14.2857 l -0.0000,14.2857 Z"/></g><g stroke-linejoin="miter" stroke-opacity="1.0" fill-opacity="1.0" stroke="rgb(169,169,169)" stroke-width="0.5" fill="rgb(173,216,230)" stroke-linecap="butt" stroke-miterlimit="10.0"><path d="M 57.1429,28.5714 l -0.0000,-14.2857 h -14.2857 l -0.0000,14.2857 Z"/></g><g stroke-linejoin="miter" stroke-opacity="1.0" fill-opacity="1.0" stroke="rgb(169,169,169)" stroke-width="0.5" fill="rgb(173,216,230)" stroke-linecap="butt" stroke-miterlimit="10.0"><path d="M 57.1429,42.8571 l -0.0000,-14.2857 h -14.2857 l -0.0000,14.2857 Z"/></g><g stroke-linejoin="miter" stroke-opacity="1.0" fill-opacity="1.0" stroke="rgb(169,169,169)" stroke-width="0.5" fill="rgb(173,216,230)" stroke-linecap="butt" stroke-miterlimit="10.0"><path d="M 57.1429,57.1429 l -0.0000,-14.2857 h -14.2857 l -0.0000,14.2857 Z"/></g><g stroke-linejoin="miter" stroke-opacity="1.0" fill-opacity="1.0" stroke="rgb(169,169,169)" stroke-width="0.5" fill="rgb(173,216,230)" stroke-linecap="butt" stroke-miterlimit="10.0"><path d="M 57.1429,71.4286 l -0.0000,-14.2857 h -14.2857 l -0.0000,14.2857 Z"/></g><g stroke-linejoin="miter" stroke-opacity="1.0" fill-opacity="1.0" stroke="rgb(169,169,169)" stroke-width="0.5" fill="rgb(173,216,230)" stroke-linecap="butt" stroke-miterlimit="10.0"><path d="M 57.1429,85.7143 l -0.0000,-14.2857 h -14.2857 l -0.0000,14.2857 Z"/></g><g stroke-linejoin="miter" stroke-opacity="1.0" fill-opacity="1.0" stroke="rgb(169,169,169)" stroke-width="0.5" fill="rgb(173,216,230)" stroke-linecap="butt" stroke-miterlimit="10.0"><path d="M 57.1429,100.0000 l -0.0000,-14.2857 h -14.2857 l -0.0000,14.2857 Z"/></g><g stroke-linejoin="miter" stroke-opacity="1.0" fill-opacity="1.0" stroke="rgb(169,169,169)" stroke-width="0.5" fill="rgb(173,216,230)" stroke-linecap="butt" stroke-miterlimit="10.0"><path d="M 42.8571,14.2857 l -0.0000,-14.2857 h -14.2857 l -0.0000,14.2857 Z"/></g><g stroke-linejoin="miter" stroke-opacity="1.0" fill-opacity="1.0" stroke="rgb(169,169,169)" stroke-width="0.5" fill="rgb(173,216,230)" stroke-linecap="butt" stroke-miterlimit="10.0"><path d="M 42.8571,28.5714 l -0.0000,-14.2857 h -14.2857 l -0.0000,14.2857 Z"/></g><g stroke-linejoin="miter" stroke-opacity="1.0" fill-opacity="1.0" stroke="rgb(169,169,169)" stroke-width="0.5" fill="rgb(173,216,230)" stroke-linecap="butt" stroke-miterlimit="10.0"><path d="M 42.8571,42.8571 l -0.0000,-14.2857 h -14.2857 l -0.0000,14.2857 Z"/></g><g stroke-linejoin="miter" stroke-opacity="1.0" fill-opacity="1.0" stroke="rgb(169,169,169)" stroke-width="0.5" fill="rgb(173,216,230)" stroke-linecap="butt" stroke-miterlimit="10.0"><path d="M 42.8571,57.1429 l -0.0000,-14.2857 h -14.2857 l -0.0000,14.2857 Z"/></g><g stroke-linejoin="miter" stroke-opacity="1.0" fill-opacity="1.0" stroke="rgb(169,169,169)" stroke-width="0.5" fill="rgb(173,216,230)" stroke-linecap="butt" stroke-miterlimit="10.0"><path d="M 42.8571,71.4286 l -0.0000,-14.2857 h -14.2857 l -0.0000,14.2857 Z"/></g><g stroke-linejoin="miter" stroke-opacity="1.0" fill-opacity="1.0" stroke="rgb(169,169,169)" stroke-width="0.5" fill="rgb(173,216,230)" stroke-linecap="butt" stroke-miterlimit="10.0"><path d="M 42.8571,85.7143 l -0.0000,-14.2857 h -14.2857 l -0.0000,14.2857 Z"/></g><g stroke-linejoin="miter" stroke-opacity="1.0" fill-opacity="1.0" stroke="rgb(169,169,169)" stroke-width="0.5" fill="rgb(173,216,230)" stroke-linecap="butt" stroke-miterlimit="10.0"><path d="M 42.8571,100.0000 l -0.0000,-14.2857 h -14.2857 l -0.0000,14.2857 Z"/></g><g stroke-linejoin="miter" stroke-opacity="1.0" fill-opacity="1.0" stroke="rgb(169,169,169)" stroke-width="0.5" fill="rgb(173,216,230)" stroke-linecap="butt" stroke-miterlimit="10.0"><path d="M 28.5714,14.2857 l -0.0000,-14.2857 h -14.2857 l -0.0000,14.2857 Z"/></g><g stroke-linejoin="miter" stroke-opacity="1.0" fill-opacity="1.0" stroke="rgb(169,169,169)" stroke-width="0.5" fill="rgb(173,216,230)" stroke-linecap="butt" stroke-miterlimit="10.0"><path d="M 28.5714,28.5714 l -0.0000,-14.2857 h -14.2857 l -0.0000,14.2857 Z"/></g><g stroke-linejoin="miter" stroke-opacity="1.0" fill-opacity="1.0" stroke="rgb(169,169,169)" stroke-width="0.5" fill="rgb(173,216,230)" stroke-linecap="butt" stroke-miterlimit="10.0"><path d="M 28.5714,42.8571 l -0.0000,-14.2857 h -14.2857 l -0.0000,14.2857 Z"/></g><g stroke-linejoin="miter" stroke-opacity="1.0" fill-opacity="1.0" stroke="rgb(169,169,169)" stroke-width="0.5" fill="rgb(173,216,230)" stroke-linecap="butt" stroke-miterlimit="10.0"><path d="M 28.5714,57.1429 l -0.0000,-14.2857 h -14.2857 l -0.0000,14.2857 Z"/></g><g stroke-linejoin="miter" stroke-opacity="1.0" fill-opacity="1.0" stroke="rgb(169,169,169)" stroke-width="0.5" fill="rgb(173,216,230)" stroke-linecap="butt" stroke-miterlimit="10.0"><path d="M 28.5714,71.4286 l -0.0000,-14.2857 h -14.2857 l -0.0000,14.2857 Z"/></g><g stroke-linejoin="miter" stroke-opacity="1.0" fill-opacity="1.0" stroke="rgb(169,169,169)" stroke-width="0.5" fill="rgb(173,216,230)" stroke-linecap="butt" stroke-miterlimit="10.0"><path d="M 28.5714,85.7143 l -0.0000,-14.2857 h -14.2857 l -0.0000,14.2857 Z"/></g><g stroke-linejoin="miter" stroke-opacity="1.0" fill-opacity="1.0" stroke="rgb(169,169,169)" stroke-width="0.5" fill="rgb(173,216,230)" stroke-linecap="butt" stroke-miterlimit="10.0"><path d="M 28.5714,100.0000 l -0.0000,-14.2857 h -14.2857 l -0.0000,14.2857 Z"/></g><g stroke-linejoin="miter" stroke-opacity="1.0" fill-opacity="1.0" stroke="rgb(169,169,169)" stroke-width="0.5" fill="rgb(173,216,230)" stroke-linecap="butt" stroke-miterlimit="10.0"><path d="M 14.2857,14.2857 l -0.0000,-14.2857 h -14.2857 l -0.0000,14.2857 Z"/></g><g stroke-linejoin="miter" stroke-opacity="1.0" fill-opacity="1.0" stroke="rgb(169,169,169)" stroke-width="0.5" fill="rgb(173,216,230)" stroke-linecap="butt" stroke-miterlimit="10.0"><path d="M 14.2857,28.5714 l -0.0000,-14.2857 h -14.2857 l -0.0000,14.2857 Z"/></g><g stroke-linejoin="miter" stroke-opacity="1.0" fill-opacity="1.0" stroke="rgb(169,169,169)" stroke-width="0.5" fill="rgb(173,216,230)" stroke-linecap="butt" stroke-miterlimit="10.0"><path d="M 14.2857,42.8571 l -0.0000,-14.2857 h -14.2857 l -0.0000,14.2857 Z"/></g><g stroke-linejoin="miter" stroke-opacity="1.0" fill-opacity="1.0" stroke="rgb(169,169,169)" stroke-width="0.5" fill="rgb(173,216,230)" stroke-linecap="butt" stroke-miterlimit="10.0"><path d="M 14.2857,57.1429 l -0.0000,-14.2857 h -14.2857 l -0.0000,14.2857 Z"/></g><g stroke-linejoin="miter" stroke-opacity="1.0" fill-opacity="1.0" stroke="rgb(169,169,169)" stroke-width="0.5" fill="rgb(173,216,230)" stroke-linecap="butt" stroke-miterlimit="10.0"><path d="M 14.2857,71.4286 l -0.0000,-14.2857 h -14.2857 l -0.0000,14.2857 Z"/></g><g stroke-linejoin="miter" stroke-opacity="1.0" fill-opacity="1.0" stroke="rgb(169,169,169)" stroke-width="0.5" fill="rgb(173,216,230)" stroke-linecap="butt" stroke-miterlimit="10.0"><path d="M 14.2857,85.7143 l -0.0000,-14.2857 h -14.2857 l -0.0000,14.2857 Z"/></g><g stroke-linejoin="miter" stroke-opacity="1.0" fill-opacity="1.0" stroke="rgb(169,169,169)" stroke-width="0.5" fill="rgb(173,216,230)" stroke-linecap="butt" stroke-miterlimit="10.0"><path d="M 14.2857,100.0000 l -0.0000,-14.2857 h -14.2857 l -0.0000,14.2857 Z"/></g><g stroke-linejoin="miter" stroke-opacity="1.0" fill-opacity="1.0" stroke="rgb(0,0,0)" stroke-width="0.0" fill="rgb(255,0,0)" stroke-linecap="butt" stroke-miterlimit="10.0"><path d="M 55.7143,50.0000 c 0.0000,-3.1559 -2.5584,-5.7143 -5.7143 -5.7143c -3.1559,-0.0000 -5.7143,2.5584 -5.7143 5.7143c -0.0000,3.1559 2.5584,5.7143 5.7143 5.7143c 3.1559,0.0000 5.7143,-2.5584 5.7143 -5.7143Z"/></g><g stroke-linejoin="miter" stroke-opacity="1.0" fill-opacity="1.0" stroke="rgb(0,0,0)" stroke-width="0.0" fill="rgb(255,0,0)" stroke-linecap="butt" stroke-miterlimit="10.0"><path d="M 55.7143,64.2857 c 0.0000,-3.1559 -2.5584,-5.7143 -5.7143 -5.7143c -3.1559,-0.0000 -5.7143,2.5584 -5.7143 5.7143c -0.0000,3.1559 2.5584,5.7143 5.7143 5.7143c 3.1559,0.0000 5.7143,-2.5584 5.7143 -5.7143Z"/></g><g stroke-linejoin="miter" stroke-opacity="1.0" fill-opacity="1.0" stroke="rgb(0,0,0)" stroke-width="0.0" fill="rgb(255,0,0)" stroke-linecap="butt" stroke-miterlimit="10.0"><path d="M 41.4286,35.7143 c 0.0000,-3.1559 -2.5584,-5.7143 -5.7143 -5.7143c -3.1559,-0.0000 -5.7143,2.5584 -5.7143 5.7143c -0.0000,3.1559 2.5584,5.7143 5.7143 5.7143c 3.1559,0.0000 5.7143,-2.5584 5.7143 -5.7143Z"/></g><g stroke-linejoin="miter" stroke-opacity="1.0" fill-opacity="1.0" stroke="rgb(0,0,0)" stroke-width="0.0" fill="rgb(255,0,0)" stroke-linecap="butt" stroke-miterlimit="10.0"><path d="M 41.4286,50.0000 c 0.0000,-3.1559 -2.5584,-5.7143 -5.7143 -5.7143c -3.1559,-0.0000 -5.7143,2.5584 -5.7143 5.7143c -0.0000,3.1559 2.5584,5.7143 5.7143 5.7143c 3.1559,0.0000 5.7143,-2.5584 5.7143 -5.7143Z"/></g><g stroke-linejoin="miter" stroke-opacity="1.0" fill-opacity="1.0" stroke="rgb(0,0,0)" stroke-width="0.0" fill="rgb(255,0,0)" stroke-linecap="butt" stroke-miterlimit="10.0"><path d="M 27.1429,64.2857 c 0.0000,-3.1559 -2.5584,-5.7143 -5.7143 -5.7143c -3.1559,-0.0000 -5.7143,2.5584 -5.7143 5.7143c -0.0000,3.1559 2.5584,5.7143 5.7143 5.7143c 3.1559,0.0000 5.7143,-2.5584 5.7143 -5.7143Z"/></g></svg>