<?xml version="1.0" encoding="UTF-8"?>
<!DOCTYPE svg PUBLIC "-//W3C//DTD SVG 1.1//EN"
    "http://www.w3.org/Graphics/SVG/1.1/DTD/svg11.dtd"><svg xmlns="http://www.w3.org/2000/svg" height="90.9091" stroke-opacity="1" viewBox="0 0 100 91" font-size="1" width="100.0000" xmlns:xlink="http://www.w3.org/1999/xlink" stroke="rgb(0,0,0)" version="1.1"><defs></defs><g stroke-linejoin="miter" stroke-opacity="1.0" fill-opacity="1.0" stroke="rgb(169,169,169)" stroke-width="0.5" fill="rgb(173,216,230)" stroke-linecap="butt" stroke-miterlimit="10.0"><path d="M 100.0000,9.0909 l -0.0000,-9.0909 h -9.0909 l -0.0000,9.0909 Z"/></g><g stroke-linejoin="miter" stroke-opacity="1.0" fill-opacity="1.0" stroke="rgb(169,169,169)" stroke-width="0.5" fill="rgb(173,216,230)" stroke-linecap="butt" stroke-miterlimit="10.0"><path d="M 100.0000,18.1818 l -0.0000,-9.0909 h -9.0909 l -0.0000,9.0909 Z"/></g><g stroke-linejoin="miter" stroke-opacity="1.0" fill-opacity="1.0" stroke="rgb(169,169,169)" stroke-width="0.5" fill="rgb(173,216,230)" stroke-linecap="butt" stroke-miterlimit="10.0"><path d="M 100.0000,27.2727 l -0.0000,-9.0909 h -9.0909 l -0.0000,9.0909 Z"/></g><g stroke-linejoin="miter" stroke-opacity="1.0" fill-opacity="1.0" stroke="rgb(169,169,169)" stroke-width="0.5" fill="rgb(173,216,230)" stroke-linecap="butt" stroke-miterlimit="10.0"><path d="M 100.0000,36.3636 l -0.0000,-9.0909 h -9.0909 l -0.0000,9.0909 Z"/></g><g stroke-linejoin="miter" stroke-opacity="1.0" fill-opacity="1.0" stroke="rgb(169,169,169)" stroke-width="0.5" fill="rgb(173,216,230)" stroke-linecap="butt" stroke-miterlimit="10.0"><path d="M 100.0000,45.4545 l -0.0000,-9.0909 h -9.0909 l -0.0000,9.0909 Z"/></g><g stroke-linejoin="miter" stroke-opacity="1.0" fill-opacity="1.0" stroke="rgb(169,169,169)" stroke-width="0.5" fill="rgb(173,216,230)" stroke-linecap="butt" stroke-miterlimit="10.0"><path d="M 100.0000,54.5455 l -0.0000,-9.0909 h -9.0909 l -0.0000,9.0909 Z"/></g><g stroke-linejoin="miter" stroke-opacity="1.0" fill-opacity="1.0" stroke="rgb(169,169,169)" stroke-width="0.5" fill="rgb(173,216,230)" stroke-linecap="butt" stroke-miterlimit="10.0"><path d="M 100.0000,63.6364 l -0.0000,-9.0909 h -9.0909 l -0.0000,9.0909 Z"/></g><g stroke-linejoin="miter" stroke-opacity="1.0" fill-opacity="1.0" stroke="rgb(169,169,169)" stroke-width="0.5" fill="rgb(173,216,230)" stroke-linecap="butt" stroke-miterlimit="10.0"><path d="M 100.0000,72.7273 l -0.0000,-9.0909 h -9.0909 l -0.0000,9.0909 Z"/></g><g stroke-linejoin="miter" stroke-opacity="1.0" fill-opacity="1.0" stroke="rgb(169,169,169)" stroke-width="0.5" fill="rgb(173,216,230)" stroke-linecap="butt" stroke-miterlimit="10.0"><path d="M 100.0000,81.8182 l -0.0000,-9.0909 h -9.0909 l -0.0000,9.0909 Z"/></g><g stroke-linejoin="miter" stroke-opacity="1.0" fill-opacity="1.0" stroke="rgb(169,169,169)" stroke-width="0.5" fill="rgb(173,216,230)" stroke-linecap="butt" stroke-miterlimit="10.0"><path d="M 100.0000,90.9091 l -0.0000,-9.0909 h -9.0909 l -0.0000,9.0909 Z"/></g><g stroke-linejoin="miter" stroke-opacity="1.0" fill-opacity="1.0" stroke="rgb(169,169,169)" stroke-width="0.5" fill="rgb(173,216,230)" stroke-linecap="butt" stroke-miterlimit="10.0"><path d="M 90.9091,9.0909 l -0.0000,-9.0909 h -9.0909 l -0.0000,9.0909 Z"/></g><g stroke-linejoin="miter" stroke-opacity="1.0" fill-opacity="1.0" stroke="rgb(169,169,169)" stroke-width="0.5" fill="rgb(173,216,230)" stroke-linecap="butt" stroke-miterlimit="10.0"><path d="M 90.9091,18.1818 l -0.0000,-9.0909 h -9.0909 l -0.0000,9.0909 Z"/></g><g stroke-linejoin="miter" stroke-opacity="1.0" fill-opacity="1.0" stroke="rgb(169,169,169)" stroke-width="0.5" fill="rgb(173,216,230)" stroke-linecap="butt" stroke-miterlimit="10.0"><path d="M 90.9091,27.2727 l -0.0000,-9.0909 h -9.0909 l -0.0000,9.0909 Z"/></g><g stroke-linejoin="miter" stroke-opacity="1.0" fill-opacity="1.0" stroke="rgb(169,169,169)" stroke-width="0.5" fill="rgb(173,216,230)" stroke-linecap="butt" stroke-miterlimit="10.0"><path d="M 90.9091,36.3636 l -0.0000,-9.0909 h -9.0909 l -0.0000,9.0909 Z"/></g><g stroke-linejoin="miter" stroke-opacity="1.0" fill-opacity="1.0" stroke="rgb(169,169,169)" stroke-width="0.5" fill="rgb(173,216,230)" stroke-linecap="butt" stroke-miterlimit="10.0"><path d="M 90.9091,45.4545 l -0.0000,-9.0909 h -9.0909 l -0.0000,9.0909 Z"/></g><g stroke-linejoin="miter" stroke-opacity="1.0" fill-opacity="1.0" stroke="rgb(169,169,169)" stroke-width="0.5" fill="rgb(173,216,230)" stroke-linecap="butt" stroke-miterlimit="10.0"><path d="M 90.9091,54.5455 l -0.0000,-9.0909 h -9.0909 l -0.0000,9.0909 Z"/></g><g stroke-linejoin="miter" stroke-opacity="1.0" fill-opacity="1.0" stroke="rgb(169,169,169)" stroke-width="0.5" fill="rgb(173,216,230)" stroke-linecap="butt" stroke-miterlimit="10.0"><path d="M 90.9091,63.6364 l -0.0000,-9.0909 h -9.0909 l -0.0000,9.0909 Z"/></g><g stroke-linejoin="miter" stroke-opacity="1.0" fill-opacity="1.0" stroke="rgb(169,169,169)" stroke-width="0.5" fill="rgb(173,216,230)" stroke-linecap="butt" stroke-miterlimit="10.0"><path d="M 90.9091,72.7273 l -0.0000,-9.0909 h -9.0909 l -0.0000,9.0909 Z"/></g><g stroke-linejoin="miter" stroke-opacity="1.0" fill-opacity="1.0" stroke="rgb(169,169,169)" stroke-width="0.5" fill="rgb(173,216,230)" stroke-linecap="butt" stroke-miterlimit="10.0"><path d="M 90.9091,81.8182 l -0.0000,-9.0909 h -9.0909 l -0.0000,9.0909 Z"/></g><g stroke-linejoin="miter" stroke-opacity="1.0" fill-opacity="1.0" stroke="rgb(169,169,169)" stroke-width="0.5" fill="rgb(173,216,230)" stroke-linecap="butt" stroke-miterlimit="10.0"><path d="M 90.9091,90.9091 l -0.0000,-9.0909 h -9.0909 l -0.0000,9.0909 Z"/></g><g stroke-linejoin="miter" stroke-opacity="1.0" fill-opacity="1.0" stroke="rgb(169,169,169)" stroke-width="0.5" fill="rgb(173,216,230)" stroke-linecap="butt" stroke-miterlimit="10.0"><path d="M 81.8182,9.0909 l -0.0000,-9.0909 h -9.0909 l -0.0000,9.0909 Z"/></g><g stroke-linejoin="miter" stroke-opacity="1.0" fill-opacity="1.0" stroke="rgb(169,169,169)" stroke-width="0.5" fill="rgb(173,216,230)" stroke-linecap="butt" stroke-miterlimit="10.0"><path d="M 81.8182,18.1818 l -0.0000,-9.0909 h -9.0909 l -0.0000,9.0909 Z"/></g><g stroke-linejoin="miter" stroke-opacity="1.0" fill-opacity="1.0" stroke="rgb(169,169,169)" stroke-width="0.5" fill="rgb(173,216,230)" stroke-linecap="butt" stroke-miterlimit="10.0"><path d="M 81.8182,27.2727 l -0.0000,-9.0909 h -9.0909 l -0.0000,9.0909 Z"/></g><g stroke-linejoin="miter" stroke-opacity="1.0" fill-opacity="1.0" stroke="rgb(169,169,169)" stroke-width="0.5" fill="rgb(173,216,230)" stroke-linecap="butt" stroke-miterlimit="10.0"><path d="M 81.8182,36.3636 l -0.0000,-9.0909 h -9.0909 l -0.0000,9.0909 Z"/></g><g stroke-linejoin="miter" stroke-opacity="1.0" fill-opacity="1.0" stroke="rgb(169,169,169)" stroke-width="0.5" fill="rgb(173,216,230)" stroke-linecap="butt" stroke-miterlimit="10.0"><path d="M 81.8182,45.4545 l -0.0000,-9.0909 h -9.0909 l -0.0000,9.0909 Z"/></g><g stroke-linejoin="miter" stroke-opacity="1.0" fill-opacity="1.0" stroke="rgb(169,169,169)" stroke-width="0.5" fill="rgb(173,216,230)" stroke-linecap="butt" stroke-miterlimit="10.0"><path d="M 81.8182,54.5455 l -0.0000,-9.0909 h -9.0909 l -0.0000,9.0909 Z"/></g><g stroke-linejoin="miter" stroke-opacity="1.0" fill-opacity="1.0" stroke="rgb(169,169,169)" stroke-width="0.5" fill="rgb(173,216,230)" stroke-linecap="butt" stroke-miterlimit="10.0"><path d="M 81.8182,63.6364 l -0.0000,-9.0909 h -9.0909 l -0.0000,9.0909 Z"/></g><g stroke-linejoin="miter" stroke-opacity="1.0" fill-opacity="1.0" stroke="rgb(169,169,169)" stroke-width="0.5" fill="rgb(173,216,230)" stroke-linecap="butt" stroke-miterlimit="10.0"><path d="M 81.8182,72.7273 l -0.0000,-9.0909 h -9.0909 l -0.0000,9.0909 Z"/></g><g stroke-linejoin="miter" stroke-opacity="1.0" fill-opacity="1.0" stroke="rgb(169,169,169)" stroke-width="0.5" fill="rgb(173,216,230)" stroke-linecap="butt" stroke-miterlimit="10.0"><path d="M 81.8182,81.8182 l -0.0000,-9.0909 h -9.0909 l -0.0000,9.0909 Z"/></g><g stroke-linejoin="miter" stroke-opacity="1.0" fill-opacity="1.0" stroke="rgb(169,169,169)" stroke-width="0.5" fill="rgb(173,216,230)" stroke-linecap="butt" stroke-miterlimit="10.0"><path d="M 81.8182,90.9091 l -0.0000,-9.0909 h -9.0909 l -0.0000,9.0909 Z"/></g><g stroke-linejoin="miter" stroke-opacity="1.0" fill-opacity="1.0" stroke="rgb(169,169,169)" stroke-width="0.5" fill="rgb(173,216,230)" stroke-linecap="butt" stroke-miterlimit="10.0"><path d="M 72.7273,9.0909 l -0.0000,-9.0909 h -9.0909 l -0.0000,9.0909 Z"/></g><g stroke-linejoin="miter" stroke-opacity="1.0" fill-opacity="1.0" stroke="rgb(169,169,169)" stroke-width="0.5" fill="rgb(173,216,230)" stroke-linecap="butt" stroke-miterlimit="10.0"><path d="M 72.7273,18.1818 l -0.0000,-9.0909 h -9.0909 l -0.0000,9.0909 Z"/></g><g stroke-linejoin="miter" stroke-opacity="1.0" fill-opacity="1.0" stroke="rgb(169,169,169)" stroke-width="0.5" fill="rgb(173,216,230)" stroke-linecap="butt" stroke-miterlimit="10.0"><path d="M 72.7273,27.2727 l -0.0000,-9.0909 h -9.0909 l -0.0000,9.0909 Z"/></g><g stroke-linejoin="miter" stroke-opacity="1.0" fill-opacity="1.0" stroke="rgb(169,169,169)" stroke-width="0.5" fill="rgb(173,216,230)" stroke-linecap="butt" stroke-miterlimit="10.0"><path d="M 72.7273,36.3636 l -0.0000,-9.0909 h -9.0909 l -0.0000,9.0909 Z"/></g><g stroke-linejoin="miter" stroke-opacity="1.0" fill-opacity="1.0" stroke="rgb(169,169,169)" stroke-width="0.5" fill="rgb(173,216,230)" stroke-linecap="butt" stroke-miterlimit="10.0"><path d="M 72.7273,45.4545 l -0.0000,-9.0909 h -9.0909 l -0.0000,9.0909 Z"/></g><g stroke-linejoin="miter" stroke-opacity="1.0" fill-opacity="1.0" stroke="rgb(169,169,169)" stroke-width="0.5" fill="rgb(173,216,230)" stroke-linecap="butt" stroke-miterlimit="10.0"><path d="M 72.7273,54.5455 l -0.0000,-9.0909 h -9.0909 l -0.0000,9.0909 Z"/></g><g stroke-linejoin="miter" stroke-opacity="1.0" fill-opacity="1.0" stroke="rgb(169,169,169)" stroke-width="0.5" fill="rgb(173,216,230)" stroke-linecap="butt" stroke-miterlimit="10.0"><path d="M 72.7273,63.6364 l -0.0000,-9.0909 h -9.0909 l -0.0000,9.0909 Z"/></g><g stroke-linejoin="miter" stroke-opacity="1.0" fill-opacity="1.0" stroke="rgb(169,169,169)" stroke-width="0.5" fill="rgb(173,216,230)" stroke-linecap="butt" stroke-miterlimit="10.0"><path d="M 72.7273,72.7273 l -0.0000,-9.0909 h -9.0909 l -0.0000,9.0909 Z"/></g><g stroke-linejoin="miter" stroke-opacity="1.0" fill-opacity="1.0" stroke="rgb(169,169,169)" stroke-width="0.5" fill="rgb(173,216,230)" stroke-linecap="butt" stroke-miterlimit="10.0"><path d="M 72.7273,81.8182 l -0.0000,-9.0909 h -9.0909 l -0.0000,9.0909 Z"/></g><g stroke-linejoin="miter" stroke-opacity="1.0" fill-opacity="1.0" stroke="rgb(169,169,169)" stroke-width="0.5" fill="rgb(173,216,230)" stroke-linecap="butt" stroke-miterlimit="10.0"><path d="M 72.7273,90.9091 l -0.0000,-9.0909 h -9.0909 l -0.0000,9.0909 Z"/></g><g stroke-linejoin="miter" stroke-opacity="1.0" fill-opacity="1.0" stroke="rgb(169,169,169)" stroke-width="0.5" fill="rgb(173,216,230)" stroke-linecap="butt" stroke-miterlimit="10.0"><path d="M 63.6364,9.0909 l -0.0000,-9.0909 h -9.0909 l -0.0000,9.0909 Z"/></g><g stroke-linejoin="miter" stroke-opacity="1.0" fill-opacity="1.0" stroke="rgb(169,169,169)" stroke-width="0.5" fill="rgb(173,216,230)" stroke-linecap="butt" stroke-miterlimit="10.0"><path d="M 63.6364,18.1818 l -0.0000,-9.0909 h -9.0909 l -0.0000,9.0909 Z"/></g><g stroke-linejoin="miter" stroke-opacity="1.0" fill-opacity="1.0" stroke="rgb(169,169,169)" stroke-width="0.5" fill="rgb(173,216,230)" stroke-linecap="butt" stroke-miterlimit="10.0"><path d="M 63.6364,27.2727 l -0.0000,-9.0909 h -9.0909 l -0.0000,9.0909 Z"/></g><g stroke-linejoin="miter" stroke-opacity="1.0" fill-opacity="1.0" stroke="rgb(169,169,169)" stroke-width="0.5" fill="rgb(173,216,230)" stroke-linecap="butt" stroke-miterlimit="10.0"><path d="M 63.6364,36.3636 l -0.0000,-9.0909 h -9.0909 l -0.0000,9.0909 Z"/></g><g stroke-linejoin="miter" stroke-opacity="1.0" fill-opacity="1.0" stroke="rgb(169,169,169)" stroke-width="0.5" fill="rgb(173,216,230)" stroke-linecap="butt" stroke-miterlimit="10.0"><path d="M 63.6364,45.4545 l -0.0000,-9.0909 h -9.0909 l -0.0000,9.0909 Z"/></g><g stroke-linejoin="miter" stroke-opacity="1.0" fill-opacity="1.0" stroke="rgb(169,169,169)" stroke-width="0.5" fill="rgb(173,216,230)" stroke-linecap="butt" stroke-miterlimit="10.0"><path d="M 63.6364,54.5455 l -0.0000,-9.0909 h -9.0909 l -0.0000,9.0909 Z"/></g><g stroke-linejoin="miter" stroke-opacity="1.0" fill-opacity="1.0" stroke="rgb(169,169,169)" stroke-width="0.5" fill="rgb(173,216,230)" stroke-linecap="butt" stroke-miterlimit="10.0"><path d="M 63.6364,63.6364 l -0.0000,-9.0909 h -9.0909 l -0.0000,9.0909 Z"/></g><g stroke-linejoin="miter" stroke-opacity="1.0" fill-opacity="1.0" stroke="rgb(169,169,169)" stroke-width="0.5" fill="rgb(173,216,230)" stroke-linecap="butt" stroke-miterlimit="10.0"><path d="M 63.6364,72.7273 l -0.0000,-9.0909 h -9.0909 l -0.0000,9.0909 Z"/></g><g stroke-linejoin="miter" stroke-opacity="1.0" fill-opacity="1.0" stroke="rgb(169,169,169)" stroke-width="0.5" fill="rgb(173,216,230)" stroke-linecap="butt" stroke-miterlimit="10.0"><path d="M 63.6364,81.8182 l -0.0000,-9.0909 h -9.0909 l -0.0000,9.0909 Z"/></g><g stroke-linejoin="miter" stroke-opacity="1.0" fill-opacity="1.0" stroke="rgb(169,169,169)" stroke-width="0.5" fill="rgb(173,216,230)" stroke-linecap="butt" stroke-miterlimit="10.0"><path d="M 63.6364,90.9091 l -0.0000,-9.0909 h -9.0909 l -0.0000,9.0909 Z"/></g><g stroke-linejoin="miter" stroke-opacity="1.0" fill-opacity="1.0" stroke="rgb(169,169,169)" stroke-width="0.5" fill="rgb(173,216,230)" stroke-linecap="butt" stroke-miterlimit="10.0"><path d="M 54.5455,9.0909 l -0.0000,-9.0909 h -9.0909 l -0.0000,9.0909 Z"/></g><g stroke-linejoin="miter" stroke-opacity="1.0" fill-opacity="1.0" stroke="rgb(169,169,169)" stroke-width="0.5" fill="rgb(173,216,230)" stroke-linecap="butt" stroke-miterlimit="10.0"><path d="M 54.5455,18.1818 l -0.0000,-9.0909 h -9.0909 l -0.0000,9.0909 Z"/></g><g stroke-linejoin="miter" stroke-opacity="1.0" fill-opacity="1.0" stroke="rgb(169,169,169)" stroke-width="0.5" fill="rgb(173,216,230)" stroke-linecap="butt" stroke-miterlimit="10.0"><path d="M 54.5455,27.2727 l -0.0000,-9.0909 h -9.0909 l -0.0000,9.0909 Z"/></g><g stroke-linejoin="miter" stroke-opacity="1.0" fill-opacity="1.0" stroke="rgb(169,169,169)" stroke-width="0.5" fill="rgb(173,216,230)" stroke-linecap="butt" stroke-miterlimit="10.0"><path d="M 54.5455,36.3636 l -0.0000,-9.0909 h -9.0909 l -0.0000,9.0909 Z"/></g><g stroke-linejoin="miter" stroke-opacity="1.0" fill-opacity="1.0" stroke="rgb(169,169,169)" stroke-width="0.5" fill="rgb(173,216,230)" stroke-linecap="butt" stroke-miterlimit="10.0"><path d="M 54.5455,45.4545 l -0.0000,-9.0909 h -9.0909 l -0.0000,9.0909 Z"/></g><g stroke-linejoin="miter" stroke-opacity="1.0" fill-opacity="1.0" stroke="rgb(169,169,169)" stroke-width="0.5" fill="rgb(173,216,230)" stroke-linecap="butt" stroke-miterlimit="10.0"><path d="M 54.5455,54.5455 l -0.0000,-9.0909 h -9.0909 l -0.0000,9.0909 Z"/></g><g stroke-linejoin="miter" stroke-opacity="1.0" fill-opacity="1.0" stroke="rgb(169,169,169)" stroke-width="0.5" fill="rgb(173,216,230)" stroke-linecap="butt" stroke-miterlimit="10.0"><path d="M 54.5455,63.6364 l -0.0000,-9.0909 h -9.0909 l -0.0000,9.0909 Z"/></g><g stroke-linejoin="miter" stroke-opacity="1.0" fill-opacity="1.0" stroke="rgb(169,169,169)" stroke-width="0.5" fill="rgb(173,216,230)" stroke-linecap="butt" stroke-miterlimit="10.0"><path d="M 54.5455,72.7273 l -0.0000,-9.0909 h -9.0909 l -0.0000,9.0909 Z"/></g><g stroke-linejoin="miter" stroke-opacity="1.0" fill-opacity="1.0" stroke="rgb(169,169,169)" stroke-width="0.5" fill="rgb(173,216,230)" stroke-linecap="butt" stroke-miterlimit="10.0"><path d="M 54.5455,81.8182 l -0.0000,-9.0909 h -9.0909 l -0.0000,9.0909 Z"/></g><g stroke-linejoin="miter" stroke-opacity="1.0" fill-opacity="1.0" stroke="rgb(169,169,169)" stroke-width="0.5" fill="rgb(173,216,230)" stroke-linecap="butt" stroke-miterlimit="10.0"><path d="M 54.5455,90.9091 l -0.0000,-9.0909 h -9.0909 l -0.0000,9.0909 Z"/></g><g stroke-linejoin="miter" stroke-opacity="1.0" fill-opacity="1.0" stroke="rgb(169,169,169)" stroke-width="0.5" fill="rgb(173,216,230)" stroke-linecap="butt" stroke-miterlimit="10.0"><path d="M 45.4545,9.0909 l -0.0000,-9.0909 h -9.0909 l -0.0000,9.0909 Z"/></g><g stroke-linejoin="miter" stroke-opacity="1.0" fill-opacity="1.0" stroke="rgb(169,169,169)" stroke-width="0.5" fill="rgb(173,216,230)" stroke-linecap="butt" stroke-miterlimit="10.0"><path d="M 45.4545,18.1818 l -0.0000,-9.0909 h -9.0909 l -0.0000,9.0909 Z"/></g><g stroke-linejoin="miter" stroke-opacity="1.0" fill-opacity="1.0" stroke="rgb(169,169,169)" stroke-width="0.5" fill="rgb(173,216,230)" stroke-linecap="butt" stroke-miterlimit="10.0"><path d="M 45.4545,27.2727 l -0.0000,-9.0909 h -9.0909 l -0.0000,9.0909 Z"/></g><g stroke-linejoin="miter" stroke-opacity="1.0" fill-opacity="1.0" stroke="rgb(169,169,169)" stroke-width="0.5" fill="rgb(173,216,230)" stroke-linecap="butt" stroke-miterlimit="10.0"><path d="M 45.4545,36.3636 l -0.0000,-9.0909 h -9.0909 l -0.0000,9.0909 Z"/></g><g stroke-linejoin="miter" stroke-opacity="1.0" fill-opacity="1.0" stroke="rgb(169,169,169)" stroke-width="0.5" fill="rgb(173,216,230)" stroke-linecap="butt" stroke-miterlimit="10.0"><path d="M 45.4545,45.4545 l -0.0000,-9.0909 h -9.0909 l -0.0000,9.0909 Z"/></g><g stroke-linejoin="miter" stroke-opacity="1.0" fill-opacity="1.0" stroke="rgb(169,169,169)" stroke-width="0.5" fill="rgb(173,216,230)" stroke-linecap="butt" stroke-miterlimit="10.0"><path d="M 45.4545,54.5455 l -0.0000,-9.0909 h -9.0909 l -0.0000,9.0909 Z"/></g><g stroke-linejoin="miter" stroke-opacity="1.0" fill-opacity="1.0" stroke="rgb(169,169,169)" stroke-width="0.5" fill="rgb(173,216,230)" stroke-linecap="butt" stroke-miterlimit="10.0"><path d="M 45.4545,63.6364 l -0.0000,-9.0909 h -9.0909 l -0.0000,9.0909 Z"/></g><g stroke-linejoin="miter" stroke-opacity="1.0" fill-opacity="1.0" stroke="rgb(169,169,169)" stroke-width="0.5" fill="rgb(173,216,230)" stroke-linecap="butt" stroke-miterlimit="10.0"><path d="M 45.4545,72.7273 l -0.0000,-9.0909 h -9.0909 l -0.0000,9.0909 Z"/></g><g stroke-linejoin="miter" stroke-opacity="1.0" fill-opacity="1.0" stroke="rgb(169,169,169)" stroke-width="0.5" fill="rgb(173,216,230)" stroke-linecap="butt" stroke-miterlimit="10.0"><path d="M 45.4545,81.8182 l -0.0000,-9.0909 h -9.0909 l -0.0000,9.0909 Z"/></g><g stroke-linejoin="miter" stroke-opacity="1.0" fill-opacity="1.0" stroke="rgb(169,169,169)" stroke-width="0.5" fill="rgb(173,216,230)" stroke-linecap="butt" stroke-miterlimit="10.0"><path d="M 45.4545,90.9091 l -0.0000,-9.0909 h -9.0909 l -0.0000,9.0909 Z"/></g><g stroke-linejoin="miter" stroke-opacity="1.0" fill-opacity="1.0" stroke="rgb(169,169,169)" stroke-width="0.5" fill="rgb(173,216,230)" stroke-linecap="butt" stroke-miterlimit="10.0"><path d="M 36.3636,9.0909 l -0.0000,-9.0909 h -9.0909 l -0.0000,9.0909 Z"/></g><g stroke-linejoin="miter" stroke-opacity="1.0" fill-opacity="1.0" stroke="rgb(169,169,169)" stroke-width="0.5" fill="rgb(173,216,230)" stroke-linecap="butt" stroke-miterlimit="10.0"><path d="M 36.3636,18.1818 l -0.0000,-9.0909 h -9.0909 l -0.0000,9.0909 Z"/></g><g stroke-linejoin="miter" stroke-opacity="1.0" fill-opacity="1.0" stroke="rgb(169,169,169)" stroke-width="0.5" fill="rgb(173,216,230)" stroke-linecap="butt" stroke-miterlimit="10.0"><path d="M 36.3636,27.2727 l -0.0000,-9.0909 h -9.0909 l -0.0000,9.0909 Z"/></g><g stroke-linejoin="miter" stroke-opacity="1.0" fill-opacity="1.0" stroke="rgb(169,169,169)" stroke-width="0.5" fill="rgb(173,216,230)" stroke-linecap="butt" stroke-miterlimit="10.0"><path d="M 36.3636,36.3636 l -0.0000,-9.0909 h -9.0909 l -0.0000,9.0909 Z"/></g><g stroke-linejoin="miter" stroke-opacity="1.0" fill-opacity="1.0" stroke="rgb(169,169,169)" stroke-width="0.5" fill="rgb(173,216,230)" stroke-linecap="butt" stroke-miterlimit="10.0"><path d="M 36.3636,45.4545 l -0.0000,-9.0909 h -9.0909 l -0.0000,9.0909 Z"/></g><g stroke-linejoin="miter" stroke-opacity="1.0" fill-opacity="1.0" stroke="rgb(169,169,169)" stroke-width="0.5" fill="rgb(173,216,230)" stroke-linecap="butt" stroke-miterlimit="10.0"><path d="M 36.3636,54.5455 l -0.0000,-9.0909 h -9.0909 l -0.0000,9.0909 Z"/></g><g stroke-linejoin="miter" stroke-opacity="1.0" fill-opacity="1.0" stroke="rgb(169,169,169)" stroke-width="0.5" fill="rgb(173,216,230)" stroke-linecap="butt" stroke-miterlimit="10.0"><path d="M 36.3636,63.6364 l -0.0000,-9.0909 h -9.0909 l -0.0000,9.0909 Z"/></g><g stroke-linejoin="miter" stroke-opacity="1.0" fill-opacity="1.0" stroke="rgb(169,169,169)" stroke-width="0.5" fill="rgb(173,216,230)" stroke-linecap="butt" stroke-miterlimit="10.0"><path d="M 36.3636,72.7273 l -0.0000,-9.0909 h -9.0909 l -0.0000,9.0909 Z"/></g><g stroke-linejoin="miter" stroke-opacity="1.0" fill-opacity="1.0" stroke="rgb(169,169,169)" stroke-width="0.5" fill="rgb(173,216,230)" stroke-linecap="butt" stroke-miterlimit="10.0"><path d="M 36.3636,81.8182 l -0.0000,-9.0909 h -9.0909 l -0.0000,9.0909 Z"/></g><g stroke-linejoin="miter" stroke-opacity="1.0" fill-opacity="1.0" stroke="rgb(169,169,169)" stroke-width="0.5" fill="rgb(173,216,230)" stroke-linecap="butt" stroke-miterlimit="10.0"><path d="M 36.3636,90.9091 l -0.0000,-9.0909 h -9.0909 l -0.0000,9.0909 Z"/></g><g stroke-linejoin="miter" stroke-opacity="1.0" fill-opacity="1.0" stroke="rgb(169,169,169)" stroke-width="0.5" fill="rgb(173,216,230)" stroke-linecap="butt" stroke-miterlimit="10.0"><path d="M 27.2727,9.0909 l -0.0000,-9.0909 h -9.0909 l -0.0000,9.0909 Z"/></g><g stroke-linejoin="miter" stroke-opacity="1.0" fill-opacity="1.0" stroke="rgb(169,169,169)" stroke-width="0.5" fill="rgb(173,216,230)" stroke-linecap="butt" stroke-miterlimit="10.0"><path d="M 27.2727,18.1818 l -0.0000,-9.0909 h -9.0909 l -0.0000,9.0909 Z"/></g><g stroke-linejoin="miter" stroke-opacity="1.0" fill-opacity="1.0" stroke="rgb(169,169,169)" stroke-width="0.5" fill="rgb(173,216,230)" stroke-linecap="butt" stroke-miterlimit="10.0"><path d="M 27.2727,27.2727 l -0.0000,-9.0909 h -9.0909 l -0.0000,9.0909 Z"/></g><g stroke-linejoin="miter" stroke-opacity="1.0" fill-opacity="1.0" stroke="rgb(169,169,169)" stroke-width="0.5" fill="rgb(173,216,230)" stroke-linecap="butt" stroke-miterlimit="10.0"><path d="M 27.2727,36.3636 l -0.0000,-9.0909 h -9.0909 l -0.0000,9.0909 Z"/></g><g stroke-linejoin="miter" stroke-opacity="1.0" fill-opacity="1.0" stroke="rgb(169,169,169)" stroke-width="0.5" fill="rgb(173,216,230)" stroke-linecap="butt" stroke-miterlimit="10.0"><path d="M 27.2727,45.4545 l -0.0000,-9.0909 h -9.0909 l -0.0000,9.0909 Z"/></g><g stroke-linejoin="miter" stroke-opacity="1.0" fill-opacity="1.0" stroke="rgb(169,169,169)" stroke-width="0.5" fill="rgb(173,216,230)" stroke-linecap="butt" stroke-miterlimit="10.0"><path d="M 27.2727,54.5455 l -0.0000,-9.0909 h -9.0909 l -0.0000,9.0909 Z"/></g><g stroke-linejoin="miter" stroke-opacity="1.0" fill-opacity="1.0" stroke="rgb(169,169,169)" stroke-width="0.5" fill="rgb(173,216,230)" stroke-linecap="butt" stroke-miterlimit="10.0"><path d="M 27.2727,63.6364 l -0.0000,-9.0909 h -9.0909 l -0.0000,9.0909 Z"/></g><g stroke-linejoin="miter" stroke-opacity="1.0" fill-opacity="1.0" stroke="rgb(169,169,169)" stroke-width="0.5" fill="rgb(173,216,230)" stroke-linecap="butt" stroke-miterlimit="10.0"><path d="M 27.2727,72.7273 l -0.0000,-9.0909 h -9.0909 l -0.0000,9.0909 Z"/></g><g stroke-linejoin="miter" stroke-opacity="1.0" fill-opacity="1.0" stroke="rgb(169,169,169)" stroke-width="0.5" fill="rgb(173,216,230)" stroke-linecap="butt" stroke-miterlimit="10.0"><path d="M 27.2727,81.8182 l -0.0000,-9.0909 h -9.0909 l -0.0000,9.0909 Z"/></g><g stroke-linejoin="miter" stroke-opacity="1.0" fill-opacity="1.0" stroke="rgb(169,169,169)" stroke-width="0.5" fill="rgb(173,216,230)" stroke-linecap="butt" stroke-miterlimit="10.0"><path d="M 27.2727,90.9091 l -0.0000,-9.0909 h -9.0909 l -0.0000,9.0909 Z"/></g><g stroke-linejoin="miter" stroke-opacity="1.0" fill-opacity="1.0" stroke="rgb(169,169,169)" stroke-width="0.5" fill="rgb(173,216,230)" stroke-linecap="butt" stroke-miterlimit="10.0"><path d="M 18.1818,9.0909 l -0.0000,-9.0909 h -9.0909 l -0.0000,9.0909 Z"/></g><g stroke-linejoin="miter" stroke-opacity="1.0" fill-opacity="1.0" stroke="rgb(169,169,169)" stroke-width="0.5" fill="rgb(173,216,230)" stroke-linecap="butt" stroke-miterlimit="10.0"><path d="M 18.1818,18.1818 l -0.0000,-9.0909 h -9.0909 l -0.0000,9.0909 Z"/></g><g stroke-linejoin="miter" stroke-opacity="1.0" fill-opacity="1.0" stroke="rgb(169,169,169)" stroke-width="0.5" fill="rgb(173,216,230)" stroke-linecap="butt" stroke-miterlimit="10.0"><path d="M 18.1818,27.2727 l -0.0000,-9.0909 h -9.0909 l -0.0000,9.0909 Z"/></g><g stroke-linejoin="miter" stroke-opacity="1.0" fill-opacity="1.0" stroke="rgb(169,169,169)" stroke-width="0.5" fill="rgb(173,216,230)" stroke-linecap="butt" stroke-miterlimit="10.0"><path d="M 18.1818,36.3636 l -0.0000,-9.0909 h -9.0909 l -0.0000,9.0909 Z"/></g><g stroke-linejoin="miter" stroke-opacity="1.0" fill-opacity="1.0" stroke="rgb(169,169,169)" stroke-width="0.5" fill="rgb(173,216,230)" stroke-linecap="butt" stroke-miterlimit="10.0"><path d="M 18.1818,45.4545 l -0.0000,-9.0909 h -9.0909 l -0.0000,9.0909 Z"/></g><g stroke-linejoin="miter" stroke-opacity="1.0" fill-opacity="1.0" stroke="rgb(169,169,169)" stroke-width="0.5" fill="rgb(173,216,230)" stroke-linecap="butt" stroke-miterlimit="10.0"><path d="M 18.1818,54.5455 l -0.0000,-9.0909 h -9.0909 l -0.0000,9.0909 Z"/></g><g stroke-linejoin="miter" stroke-opacity="1.0" fill-opacity="1.0" stroke="rgb(169,169,169)" stroke-width="0.5" fill="rgb(173,216,230)" stroke-linecap="butt" stroke-miterlimit="10.0"><path d="M 18.1818,63.6364 l -0.0000,-9.0909 h -9.0909 l -0.0000,9.0909 Z"/></g><g stroke-linejoin="miter" stroke-opacity="1.0" fill-opacity="1.0" stroke="rgb(169,169,169)" stroke-width="0.5" fill="rgb(173,216,230)" stroke-linecap="butt" stroke-miterlimit="10.0"><path d="M 18.1818,72.7273 l -0.0000,-9.0909 h -9.0909 l -0.0000,9.0909 Z"/></g><g stroke-linejoin="miter" stroke-opacity="1.0" fill-opacity="1.0" stroke="rgb(169,169,169)" stroke-width="0.5" fill="rgb(173,216,230)" stroke-linecap="butt" stroke-miterlimit="10.0"><path d="M 18.1818,81.8182 l -0.0000,-9.0909 h -9.0909 l -0.0000,9.0909 Z"/></g><g stroke-linejoin="miter" stroke-opacity="1.0" fill-opacity="1.0" stroke="rgb(169,169,169)" stroke-width="0.5" fill="rgb(173,216,230)" stroke-linecap="butt" stroke-miterlimit="10.0"><path d="M 18.1818,90.9091 l -0.0000,-9.0909 h -9.0909 l -0.0000,9.0909 Z"/></g><g stroke-linejoin="miter" stroke-opacity="1.0" fill-opacity="1.0" stroke="rgb(169,169,169)" stroke-width="0.5" fill="rgb(173,216,230)" stroke-linecap="butt" stroke-miterlimit="10.0"><path d="M 9.0909,9.0909 l -0.0000,-9.0909 h -9.0909 l -0.0000,9.0909 Z"/></g><g stroke-linejoin="miter" stroke-opacity="1.0" fill-opacity="1.0" stroke="rgb(169,169,169)" stroke-width="0.5" fill="rgb(173,216,230)" stroke-linecap="butt" stroke-miterlimit="10.0"><path d="M 9.0909,18.1818 l -0.0000,-9.0909 h -9.0909 l -0.0000,9.0909 Z"/></g><g stroke-linejoin="miter" stroke-opacity="1.0" fill-opacity="1.0" stroke="rgb(169,169,169)" stroke-width="0.5" fill="rgb(173,216,230)" stroke-linecap="butt" stroke-miterlimit="10.0"><path d="M 9.0909,27.2727 l -0.0000,-9.0909 h -9.0909 l -0.0000,9.0909 Z"/></g><g stroke-linejoin="miter" stroke-opacity="1.0" fill-opacity="1.0" stroke="rgb(169,169,169)" stroke-width="0.5" fill="rgb(173,216,230)" stroke-linecap="butt" stroke-miterlimit="10.0"><path d="M 9.0909,36.3636 l -0.0000,-9.0909 h -9.0909 l -0.0000,9.0909 Z"/></g><g stroke-linejoin="miter" stroke-opacity="1.0" fill-opacity="1.0" stroke="rgb(169,169,169)" stroke-width="0.5" fill="rgb(173,216,230)" stroke-linecap="butt" stroke-miterlimit="10.0"><path d="M 9.0909,45.4545 l -0.0000,-9.0909 h -9.0909 l -0.0000,9.0909 Z"/></g><g stroke-linejoin="miter" stroke-opacity="1.0" fill-opacity="1.0" stroke="rgb(169,169,169)" stroke-width="0.5" fill="rgb(173,216,230)" stroke-linecap="butt" stroke-miterlimit="10.0"><path d="M 9.0909,54.5455 l -0.0000,-9.0909 h -9.0909 l -0.0000,9.0909 Z"/></g><g stroke-linejoin="miter" stroke-opacity="1.0" fill-opacity="1.0" stroke="rgb(169,169,169)" stroke-width="0.5" fill="rgb(173,216,230)" stroke-linecap="butt" stroke-miterlimit="10.0"><path d="M 9.0909,63.6364 l -0.0000,-9.0909 h -9.0909 l -0.0000,9.0909 Z"/></g><g stroke-linejoin="miter" stroke-opacity="1.0" fill-opacity="1.0" stroke="rgb(169,169,169)" stroke-width="0.5" fill="rgb(173,216,230)" stroke-linecap="butt" stroke-miterlimit="10.0"><path d="M 9.0909,72.7273 l -0.0000,-9.0909 h -9.0909 l -0.0000,9.0909 Z"/></g><g stroke-linejoin="miter" stroke-opacity="1.0" fill-opacity="1.0" stroke="rgb(169,169,169)" stroke-width="0.5" fill="rgb(173,216,230)" stroke-linecap="butt" stroke-miterlimit="10.0"><path d="M 9.0909,81.8182 l -0.0000,-9.0909 h -9.0909 l -0.0000,9.0909 Z"/></g><g stroke-linejoin="miter" stroke-opacity="1.0" fill-opacity="1.0" stroke="rgb(169,169,169)" stroke-width="0.5" fill="rgb(173,216,230)" stroke-linecap="butt" stroke-miterlimit="10.0"><path d="M 9.0909,90.9091 l -0.0000,-9.0909 h -9.0909 l -0.0000,9.0909 Z"/></g><g stroke-linejoin="miter" stroke-opacity="1.0" fill-opacity="1.0" stroke="rgb(0,0,0)" stroke-width="0.0" fill="rgb(255,0,0)" stroke-linecap="butt" stroke-miterlimit="10.0"><path d="M 80.9091,40.9091 c 0.0000,-2.0083 -1.6281,-3.6364 -3.6364 -3.6364c -2.0083,-0.0000 -3.6364,1.6281 -3.6364 3.6364c -0.0000,2.0083 1.6281,3.6364 3.6364 3.6364c 2.0083,0.0000 3.6364,-1.6281 3.6364 -3.6364Z"/></g><g stroke-linejoin="miter" stroke-opacity="1.0" fill-opacity="1.0" stroke="rgb(0,0,0)" stroke-width="0.0" fill="rgb(255,0,0)" stroke-linecap="butt" stroke-miterlimit="10.0"><path d="M 71.8182,31.8182 c 0.0000,-2.0083 -1.6281,-3.6364 -3.6364 -3.6364c -2.0083,-0.0000 -3.6364,1.6281 -3.6364 3.6364c -0.0000,2.0083 1.6281,3.6364 3.6364 3.6364c 2.0083,0.0000 3.6364,-1.6281 3.6364 -3.6364Z"/></g><g stroke-linejoin="miter" stroke-opacity="1.0" fill-opacity="1.0" stroke="rgb(0,0,0)" stroke-width="0.0" fill="rgb(255,0,0)" stroke-linecap="butt" stroke-miterlimit="10.0"><path d="M 71.8182,50.0000 c 0.0000,-2.0083 -1.6281,-3.6364 -3.6364 -3.6364c -2.0083,-0.0000 -3.6364,1.6281 -3.6364 3.6364c -0.0000,2.0083 1.6281,3.6364 3.6364 3.6364c 2.0083,0.0000 3.6364,-1.6281 3.6364 -3.6364Z"/></g><g stroke-linejoin="miter" stroke-opacity="1.0" fill-opacity="1.0" stroke="rgb(0,0,0)" stroke-width="0.0" fill="rgb(255,0,0)" stroke-linecap="butt" stroke-miterlimit="10.0"><path d="M 71.8182,59.0909 c 0.0000,-2.0083 -1.6281,-3.6364 -3.6364 -3.6364c -2.0083,-0.0000 -3.6364,1.6281 -3.6364 3.6364c -0.0000,2.0083 1.6281,3.6364 3.6364 3.6364c 2.0083,0.0000 3.6364,-1.6281 3.6364 -3.6364Z"/></g><g stroke-linejoin="miter" stroke-opacity="1.0" fill-opacity="1.0" stroke="rgb(0,0,0)" stroke-width="0.0" fill="rgb(255,0,0)" stroke-linecap="butt" stroke-miterlimit="10.0"><path d="M 62.7273,31.8182 c 0.0000,-2.0083 -1.6281,-3.6364 -3.6364 -3.6364c -2.0083,-0.0000 -3.6364,1.6281 -3.6364 3.6364c -0.0000,2.0083 1.6281,3.6364 3.6364 3.6364c 2.0083,0.0000 3.6364,-1.6281 3.6364 -3.6364Z"/></g><g stroke-linejoin="miter" stroke-opacity="1.0" fill-opacity="1.0" stroke="rgb(0,0,0)" stroke-width="0.0" fill="rgb(255,0,0)" stroke-linecap="butt" stroke-miterlimit="10.0"><path d="M 62.7273,50.0000 c 0.0000,-2.0083 -1.6281,-3.6364 -3.6364 -3.6364c -2.0083,-0.0000 -3.6364,1.6281 -3.6364 3.6364c -0.0000,2.0083 1.6281,3.6364 3.6364 3.6364c 2.0083,0.0000 3.6364,-1.6281 3.6364 -3.6364Z"/></g><g stroke-linejoin="miter" stroke-opacity="1.0" fill-opacity="1.0" stroke="rgb(0,0,0)" stroke-width="0.0" fill="rgb(255,0,0)" stroke-linecap="butt" stroke-miterlimit="10.0"><path d="M 53.6364,40.9091 c 0.0000,-2.0083 -1.6281,-3.6364 -3.6364 -3.6364c -2.0083,-0.0000 -3.6364,1.6281 -3.6364 3.6364c -0.0000,2.0083 1.6281,3.6364 3.6364 3.6364c 2.0083,0.0000 3.6364,-1.6281 3.6364 -3.6364Z"/></g></svg>